<?xml version="1.0" encoding="UTF-8" standalone="no"?>
<svg width="79px" height="65px" viewBox="0 0 79 65" version="1.1" xmlns="http://www.w3.org/2000/svg" xmlns:xlink="http://www.w3.org/1999/xlink">
    <!-- Generator: Sketch Beta 39.1 (31721) - http://www.bohemiancoding.com/sketch -->
    <title>Page 1</title>
    <desc>Created with Sketch Beta.</desc>
    <defs></defs>
    <g id="Page-1" stroke="none" stroke-width="1" fill="none" fill-rule="evenodd">
        <g id="Index" transform="translate(-695.000000, -1063.000000)">
            <g id="Group-18" transform="translate(281.000000, 1061.000000)">
                <g id="Page-1" transform="translate(415.000000, 2.000000)">
                    <polyline id="Stroke-1" stroke="#191919" points="11.1378858 25.8756946 22.0857531 6.99470766 43.9814877 6.99470766"></polyline>
                    <polyline id="Stroke-2" stroke="#191919" points="65.8979137 6.99485301 54.9500464 25.87584 33.0543118 25.87584"></polyline>
                    <g id="Group-9" transform="translate(0.000000, 6.771240)" stroke="#191919">
                        <polyline id="Stroke-3" points="33.0543118 56.8660649 22.1064445 37.9850779 33.0543118 19.1044543 54.9500464 19.1044543 65.8979137 37.9850779"></polyline>
                        <polygon id="Stroke-5" points="43.9814877 37.9852596 33.0336204 19.1042726 43.9814877 0.223648964 65.8772223 0.223648964 76.8250896 19.1042726 65.8772223 37.9852596"></polygon>
                        <polygon id="Stroke-7" points="11.1585773 56.8660649 0.210709953 37.9850779 11.1585773 19.1044543 33.0543118 19.1044543 44.0021791 37.9850779 33.0543118 56.8660649"></polygon>
                    </g>
                    <polyline id="Stroke-10" stroke="#191919" points="44.0021791 6.99485301 33.0543118 25.87584 11.1585773 25.87584"></polyline>
                    <g id="Group-31" transform="translate(0.000000, 0.230735)">
                        <polyline id="Stroke-11" stroke="#191919" points="33.0336204 25.6449601 22.0857531 44.5259471 0.190018483 44.5259471"></polyline>
                        <path d="M21.3223218,1.10443709 C21.8259237,1.96451361 21.3606393,3.16833005 20.2826393,3.79440181 C19.2042744,4.4201102 17.923009,4.23043553 17.4194071,3.37035901 C16.9176299,2.51318938 17.3829142,1.30937294 18.4609142,0.683664544 C19.5392791,0.0575927878 20.8205445,0.247630819 21.3223218,1.10443709 L21.3223218,1.10443709 Z" id="Stroke-13" stroke="#191919"></path>
                        <path d="M29.2482493,14.7704607 C29.7518512,15.6305373 29.2865668,16.8343537 28.2085668,17.4604254 C27.1302019,18.0861338 25.8489365,17.8964592 25.3453346,17.0363827 C24.8435573,16.179213 25.3088417,14.9753966 26.3868417,14.3496882 C27.4652066,13.7236164 28.746472,13.9136545 29.2482493,14.7704607 L29.2482493,14.7704607 Z" id="Stroke-15" stroke="#191919"></path>
                        <path d="M21.3223218,1.10443709 L27.8165967,12.1945915 C28.3183739,13.0513978 27.8530896,14.2552142 26.7750896,14.881286 C25.6967246,15.5073577 24.4154592,15.3173197 23.913682,14.4605134 L17.4194071,3.37035901 C17.923009,4.23043553 19.2042744,4.4201102 20.2826393,3.79440181 C21.3606393,3.16833005 21.8259237,1.96451361 21.3223218,1.10443709" id="Fill-17" fill="#FFFFFF"></path>
                        <path d="M21.3223218,1.10443709 L27.8165967,12.1945915 C28.3183739,13.0513978 27.8530896,14.2552142 26.7750896,14.881286 C25.6967246,15.5073577 24.4154592,15.3173197 23.913682,14.4605134 L17.4194071,3.37035901 C17.923009,4.23043553 19.2042744,4.4201102 20.2826393,3.79440181 C21.3606393,3.16833005 21.8259237,1.96451361 21.3223218,1.10443709 L21.3223218,1.10443709 Z" id="Stroke-19" stroke="#191919"></path>
                        <path d="M53.1795209,46.8457555 C52.1796156,46.8348547 51.3807863,45.8192595 51.3946536,44.5769267 C51.4085209,43.3342306 52.2296109,42.3368035 53.2295161,42.3477043 C54.225772,42.3586052 55.0246014,43.373837 55.0107341,44.6165331 C54.9968668,45.8592292 54.1757768,46.8566564 53.1795209,46.8457555" id="Fill-21" fill="#FFFFFF"></path>
                        <path d="M53.1795209,46.8457555 C52.1796156,46.8348547 51.3807863,45.8192595 51.3946536,44.5769267 C51.4085209,43.3342306 52.2296109,42.3368035 53.2295161,42.3477043 C54.225772,42.3586052 55.0246014,43.373837 55.0107341,44.6165331 C54.9968668,45.8592292 54.1757768,46.8566564 53.1795209,46.8457555 L53.1795209,46.8457555 Z" id="Stroke-23" stroke="#191919"></path>
                        <path d="M33.4260649,46.7748274 C32.4261597,46.7639265 31.6273303,45.7483313 31.6411976,44.5059986 C31.6550649,43.2633025 32.476155,42.2658753 33.4760602,42.2767762 C34.4723161,42.287677 35.2711455,43.3029089 35.2572782,44.545605 C35.2434109,45.7883011 34.4223209,46.7857282 33.4260649,46.7748274 L33.4260649,46.7748274 Z" id="Stroke-25" stroke="#191919"></path>
                        <path d="M53.1795209,46.8457555 L40.2873123,46.7036812 C39.2910564,46.6927804 38.492227,45.6775485 38.5060943,44.4348524 C38.5199616,43.1921563 39.3410517,42.1947292 40.3373076,42.20563 L53.2295161,42.3477043 C52.2296109,42.3368035 51.4085209,43.3342306 51.3946536,44.5769267 C51.3807863,45.8192595 52.1796156,46.8348547 53.1795209,46.8457555" id="Fill-27" fill="#FFFFFF"></path>
                        <path d="M53.1795209,46.8457555 L40.2873123,46.7036812 C39.2910564,46.6927804 38.492227,45.6775485 38.5060943,44.4348524 C38.5199616,43.1921563 39.3410517,42.1947292 40.3373076,42.20563 L53.2295161,42.3477043 C52.2296109,42.3368035 51.4085209,43.3342306 51.3946536,44.5769267 C51.3807863,45.8192595 52.1796156,46.8348547 53.1795209,46.8457555 L53.1795209,46.8457555 Z" id="Stroke-29" stroke="#191919"></path>
                    </g>
                </g>
            </g>
        </g>
    </g>
</svg>