<?xml version="1.0" encoding="UTF-8" standalone="no"?>
<svg width="76px" height="75px" viewBox="0 0 76 75" version="1.1" xmlns="http://www.w3.org/2000/svg" xmlns:xlink="http://www.w3.org/1999/xlink">
    <!-- Generator: Sketch Beta 39.1 (31721) - http://www.bohemiancoding.com/sketch -->
    <title>Page 1</title>
    <desc>Created with Sketch Beta.</desc>
    <defs></defs>
    <g id="Page-1" stroke="none" stroke-width="1" fill="none" fill-rule="evenodd">
        <g id="Index" transform="translate(-358.000000, -1060.000000)" stroke="#191919">
            <g id="Group-18" transform="translate(281.000000, 1061.000000)">
                <g id="Group-19">
                    <g id="Page-1" transform="translate(78.000000, 0.000000)">
                        <polyline id="Stroke-1" points="63.3304626 18.3238383 52.8091355 36.473245 31.7664815 36.473245 21.2451545 18.3238383 31.7664815 0.174431579"></polyline>
                        <polyline id="Stroke-3" points="31.7664815 72.7715694 21.2451545 54.6221627 31.7664815 36.4731053 52.8091355 36.4731053 63.3304626 54.6221627"></polyline>
                        <polygon id="Stroke-5" points="42.2679232 54.6223373 31.7465962 36.4729306 42.2679232 18.3238732 63.3105773 18.3238732 73.8319043 36.4729306 63.3105773 54.6223373"></polygon>
                        <polygon id="Stroke-7" points="10.7238275 72.7715694 0.202500474 54.6221627 10.7238275 36.4731053 31.7664815 36.4731053 42.2878085 54.6221627 31.7664815 72.7715694"></polygon>
                        <polygon id="Stroke-9" points="10.7238275 36.4731053 0.202500474 18.3236986 10.7238275 0.174641148 31.7664815 0.174641148 42.2878085 18.3236986 31.7664815 36.4731053"></polygon>
                        <polyline id="Stroke-11" points="0.182615166 18.3238383 21.2252692 18.3238383 31.7465962 36.473245 21.2252692 54.6223024 0.182615166 54.6223024"></polyline>
                    </g>
                </g>
            </g>
        </g>
    </g>
</svg>