<?xml version="1.0" encoding="UTF-8" standalone="no"?>
<svg width="27px" height="26px" viewBox="0 0 27 26" version="1.1" xmlns="http://www.w3.org/2000/svg" xmlns:xlink="http://www.w3.org/1999/xlink">
    <!-- Generator: Sketch Beta 39.1 (31721) - http://www.bohemiancoding.com/sketch -->
    <title>Group</title>
    <desc>Created with Sketch Beta.</desc>
    <defs></defs>
    <g id="Page-1" stroke="none" stroke-width="1" fill="none" fill-rule="evenodd">
        <g id="Index" transform="translate(-1150.000000, -2584.000000)" fill="#71747B">
            <g id="Group-22" transform="translate(1.000000, 2555.000000)">
                <g id="github" transform="translate(1149.000000, 29.000000)">
                    <g id="Group" transform="translate(0.045281, 0.066286)">
                        <path d="M0.00290263783,12.8457896 C0.00290263783,18.4458224 3.64861575,23.2087075 8.73113459,24.9572891 C9.41615712,25.1287187 9.31166215,24.6458587 9.31166215,24.3201425 L9.31166215,22.0972724 C5.35826943,22.5544179 5.20152699,19.9772599 4.93448431,19.548686 C4.39749631,18.6458236 3.13194622,18.4172508 3.50928913,17.9886769 C4.40910686,17.5315313 5.32634042,18.1029632 6.38870586,19.6486866 C7.15790489,20.7686931 8.655666,20.5801206 9.41615712,20.3915481 C9.58160747,19.7172584 9.93863192,19.1172549 10.4262751,18.6486807 C6.33355574,17.9315337 4.6268047,15.4715192 4.6268047,12.5457878 C4.6268047,11.1286367 5.1028373,9.82291471 6.03458405,8.77147998 C5.44244593,7.03432694 6.08973416,5.55146111 6.1768133,5.33145982 C7.86905115,5.18003036 9.62514704,6.52289537 9.76157102,6.62861028 C10.7223441,6.37432307 11.8195412,6.23717941 13.047357,6.23717941 C14.2809781,6.23717941 15.3839805,6.37718023 16.3505589,6.6343246 C16.678557,6.38860887 18.3098394,5.23717355 19.8830691,5.37717437 C19.9672456,5.59717566 20.6000207,7.04861274 20.0427142,8.76005134 C20.9860715,9.81434323 21.4679094,11.1286367 21.4679094,12.5515021 C21.4679094,15.4829479 19.7495478,17.9458195 15.6452179,18.6572522 C16.3302404,19.3229704 16.7540255,20.2458329 16.7540255,21.2686961 L16.7540255,24.4944293 C16.7772466,24.7515736 16.7540255,25.008718 17.1923239,25.008718 C22.3503113,23.2972794 26.0627851,18.5001084 26.0627851,12.8486467 C26.0627851,5.76289092 20.228483,0.0228572768 13.0328438,0.0228572768 C5.83430204,0.0200001172 0.00290263783,5.76003376 0.00290263783,12.8457896 L0.00290263783,12.8457896 L0.00290263783,12.8457896 Z" id="Shape"></path>
                    </g>
                </g>
            </g>
        </g>
    </g>
</svg>