<?xml version="1.0" encoding="UTF-8" standalone="no"?>
<svg width="89px" height="28px" viewBox="0 0 89 28" version="1.1" xmlns="http://www.w3.org/2000/svg" xmlns:xlink="http://www.w3.org/1999/xlink">
    <!-- Generator: Sketch Beta 39.1 (31721) - http://www.bohemiancoding.com/sketch -->
    <title>Logo</title>
    <desc>Created with Sketch Beta.</desc>
    <defs></defs>
    <g id="Page-1" stroke="none" stroke-width="1" fill="none" fill-rule="evenodd">
        <g id="Index" transform="translate(-345.000000, -27.000000)" fill="#FFFFFF">
            <g id="Group-5" transform="translate(345.000000, 27.000000)">
                <g id="Logo">
                    <g id="Group-10" transform="translate(44.000000, 5.000000)">
                        <path d="M29.1177382,0.3234375 L28.8110889,2.9390625 C27.3614671,2.9390625 26.4554671,3.14999789 26.0930617,3.571875 L26.0930617,3.7546875 C26.6413161,4.45781602 26.9154392,5.24530814 26.9154392,6.1171875 C26.9154392,7.4578192 26.4252699,8.60155777 25.4449167,9.5484375 C24.4645635,10.4953172 23.0033481,10.96875 21.0612266,10.96875 C20.113397,10.96875 19.3374893,10.8937507 18.7334802,10.74375 C18.2409805,10.9687511 17.9947343,11.2640607 17.9947343,11.6296875 C17.9947343,12.2015654 18.2897651,12.6023426 18.8798355,12.8320312 C19.4699059,13.0617199 20.8428444,13.1765625 22.9986922,13.1765625 C26.7249636,13.1765625 28.5880713,14.4562372 28.5880713,17.015625 C28.5880713,18.815634 27.8121636,20.2453072 26.2603249,21.3046875 C24.7084862,22.3640678 22.8221477,22.89375 20.6012528,22.89375 C16.2523874,22.89375 14.0779873,21.5156388 14.0779873,18.759375 C14.0779873,17.9062457 14.3219104,17.1820342 14.8097639,16.5867187 C15.2976174,15.9914033 15.8621251,15.6281257 16.503304,15.496875 L16.503304,15.2859375 C15.7227384,14.78906 15.3324615,14.0296926 15.3324615,13.0078125 C15.3324615,11.9765573 15.8667692,11.114066 16.9354006,10.4203125 L16.9354006,10.2234375 C15.4300241,9.4640587 14.6773472,8.27813306 14.6773472,6.665625 C14.6773472,5.28749311 15.1953934,4.13437964 16.2315012,3.20625 C17.2676091,2.27812036 18.8682092,1.8140625 21.0333494,1.8140625 C22.5108485,1.8140625 23.7095562,2.09530969 24.6295085,2.6578125 L24.824649,2.6578125 C25.0941299,0.885928641 25.9954838,0 27.5287376,0 C28.1327467,0 28.6624082,0.107811422 29.1177382,0.3234375 L29.1177382,0.3234375 Z M25.1452368,18.05625 C25.1452368,17.3624965 24.8827291,16.860939 24.3577058,16.5515625 C23.8326825,16.242186 22.9290056,16.0875 21.6466479,16.0875 C20.6058937,16.0875 19.555863,16.0406255 18.496524,15.946875 C17.6787886,16.4343774 17.269927,17.1609327 17.269927,18.1265625 C17.269927,19.9265715 18.4593425,20.8265625 20.838209,20.8265625 C22.1670289,20.8265625 23.2170597,20.57344 23.9883329,20.0671875 C24.759606,19.560935 25.1452368,18.8906292 25.1452368,18.05625 L25.1452368,18.05625 Z M23.5004818,6.4828125 C23.5004818,5.63905828 23.2310049,4.9968772 22.692043,4.55625 C22.153081,4.1156228 21.5351425,3.8953125 20.838209,3.8953125 C20.1412754,3.8953125 19.5303062,4.10859162 19.0052829,4.53515625 C18.4802596,4.96172088 18.2177519,5.58749587 18.2177519,6.4125 C18.2177519,7.24687917 18.4872289,7.87968534 19.0261908,8.3109375 C19.5651527,8.74218966 20.1923835,8.9578125 20.907902,8.9578125 C21.5862506,8.9578125 22.1879276,8.74922084 22.7129509,8.33203125 C23.2379741,7.91484166 23.5004818,7.29844158 23.5004818,6.4828125 L23.5004818,6.4828125 Z" id="egg"></path>
                        <path d="M12.6980658,7.509375 C12.6980658,7.98750239 12.6701889,8.61093366 12.6144342,9.3796875 L3.63797494,9.534375 C3.76806921,10.5937553 4.21874614,11.4749965 4.99001927,12.178125 C5.7612924,12.8812535 6.77415397,13.2328125 8.02863436,13.2328125 C9.42250146,13.2328125 10.9046246,13.0218771 12.4750482,12.6 L12.1962762,15.328125 C10.9139184,15.7968773 9.32493376,16.03125 7.4292745,16.03125 C5.03182309,16.03125 3.19426919,15.3515693 1.91655768,13.9921875 C0.638846172,12.6328057 0,10.9968846 0,9.084375 C0,7.08749002 0.606323094,5.35547609 1.81898747,3.88828125 C3.03165185,2.42108641 4.71588267,1.6875 6.87173045,1.6875 C8.84172929,1.6875 10.3052678,2.22655711 11.2623899,3.3046875 C12.2195119,4.38281789 12.6980658,5.78436638 12.6980658,7.509375 Z M9.43643309,7.3828125 C9.43643309,5.22655172 8.52578691,4.1484375 6.70446724,4.1484375 C4.96677958,4.1484375 3.9353334,5.26405134 3.61009774,7.4953125 L9.43643309,7.3828125 Z" id="Combined-Shape"></path>
                        <path d="M44.8404805,0.3234375 L44.5338312,2.9390625 C43.0842094,2.9390625 42.1782094,3.14999789 41.815804,3.571875 L41.815804,3.7546875 C42.3640584,4.45781602 42.6381814,5.24530814 42.6381814,6.1171875 C42.6381814,7.4578192 42.1480122,8.60155777 41.167659,9.5484375 C40.1873058,10.4953172 38.7260904,10.96875 36.7839689,10.96875 C35.8361393,10.96875 35.0602315,10.8937507 34.4562225,10.74375 C33.9637228,10.9687511 33.7174766,11.2640607 33.7174766,11.6296875 C33.7174766,12.2015654 34.0125074,12.6023426 34.6025778,12.8320312 C35.1926482,13.0617199 36.5655867,13.1765625 38.7214345,13.1765625 C42.4477059,13.1765625 44.3108136,14.4562372 44.3108136,17.015625 C44.3108136,18.815634 43.5349059,20.2453072 41.9830672,21.3046875 C40.4312285,22.3640678 38.54489,22.89375 36.323995,22.89375 C31.9751297,22.89375 29.8007296,21.5156388 29.8007296,18.759375 C29.8007296,17.9062457 30.0446527,17.1820342 30.5325062,16.5867187 C31.0203597,15.9914033 31.5848674,15.6281257 32.2260463,15.496875 L32.2260463,15.2859375 C31.4454807,14.78906 31.0552037,14.0296926 31.0552037,13.0078125 C31.0552037,11.9765573 31.5895115,11.114066 32.6581429,10.4203125 L32.6581429,10.2234375 C31.1527664,9.4640587 30.4000895,8.27813306 30.4000895,6.665625 C30.4000895,5.28749311 30.9181357,4.13437964 31.9542435,3.20625 C32.9903514,2.27812036 34.5909515,1.8140625 36.7560917,1.8140625 C38.2335908,1.8140625 39.4322985,2.09530969 40.3522508,2.6578125 L40.5473912,2.6578125 C40.8168722,0.885928641 41.7182261,0 43.2514799,0 C43.855489,0 44.3851505,0.107811422 44.8404805,0.3234375 Z M39.2232241,6.4828125 C39.2232241,5.63905828 38.9537472,4.9968772 38.4147852,4.55625 C37.8758233,4.1156228 37.2578848,3.8953125 36.5609513,3.8953125 C35.8640177,3.8953125 35.2530485,4.10859162 34.7280252,4.53515625 C34.2030019,4.96172088 33.9404942,5.58749587 33.9404942,6.4125 C33.9404942,7.24687917 34.2099711,7.87968534 34.7489331,8.3109375 C35.287895,8.74218966 35.9151258,8.9578125 36.6306443,8.9578125 C37.3089929,8.9578125 37.9106699,8.74922084 38.4356931,8.33203125 C38.9607164,7.91484166 39.2232241,7.29844158 39.2232241,6.4828125 Z M40.8679791,18.05625 C40.8679791,17.3624965 40.6054714,16.860939 40.0804481,16.5515625 C39.5554248,16.242186 38.6517479,16.0875 37.3693901,16.0875 C36.328636,16.0875 35.2786052,16.0406255 34.2192662,15.946875 C33.4015309,16.4343774 32.9926693,17.1609327 32.9926693,18.1265625 C32.9926693,19.9265715 34.1820847,20.8265625 36.5609513,20.8265625 C37.8897712,20.8265625 38.939802,20.57344 39.7110752,20.0671875 C40.4823483,19.560935 40.8679791,18.8906292 40.8679791,18.05625 Z" id="Combined-Shape"></path>
                    </g>
                    <g id="Page-1">
                        <path d="M7.2,15.1726335 L4,20.6900609 L0,13.7932766 L4,6.89662504 L8.00004,5.30920061e-05 L15.9999067,5.30920061e-05 L14.39996,2.75871372 L15.99996,5.30920061e-05 L20.0000933,6.89670468 L12,6.89670468 L4.00004619,6.89670468 L8,13.7932766 L7.2,15.1726335 L4,20.6899548 L12,20.6899548 L8,13.7933032 L7.2,15.1726335 Z M18.1236406,23.9257798 L20.0000933,20.6899548 L23.99996,27.5879336 L15.99996,27.5879336 L18.1236406,23.9257798 L16,27.5879867 L12,20.6900078 L20,20.6900078 L18.1236406,23.9257798 Z M24,13.7932766 L32,13.7932766 L28,6.89662504 L24,13.7932766 Z M12,6.89665158 L8,13.7933032 L4,6.89665158 L12,6.89665158 Z M15.99996,5.30920061e-05 L20.0000933,6.89670468 L27.99996,6.89670468 L23.99996,5.30920061e-05 L15.99996,5.30920061e-05 Z M28,6.89665158 L24,13.7933032 L20,6.89665158 L28,6.89665158 Z M3.99996,20.6900078 L8.00009333,27.5879867 L15.99996,27.5879867 L11.99996,20.6900078 L3.99996,20.6900078 Z" id="Combined-Shape"></path>
                        <polygon id="Fill-2" points="24 13.7932766 32 13.7932766 28 6.89662504"></polygon>
                        <polygon id="Fill-6" points="15.99996 5.30920061e-05 20.0000933 6.89670468 27.99996 6.89670468 23.99996 5.30920061e-05"></polygon>
                        <polygon id="Fill-7" points="15.99996 5.30920061e-05 11.99996 6.89670468 20.0000933 6.89670468"></polygon>
                        <polygon id="Fill-8" points="28 6.89665158 24 13.7933032 20 6.89665158"></polygon>
                        <polygon id="Fill-3" points="15.99996 27.5879336 23.99996 27.5879336 20.0000933 20.6899548"></polygon>
                        <polygon id="Fill-9" points="12 20.6900078 16 27.5879867 20 20.6900078"></polygon>
                        <polygon id="Fill-10" points="12 20.6899548 4 20.6899548 8 13.7933032"></polygon>
                        <polygon id="Fill-11" points="3.99996 20.6900078 8.00009333 27.5879867 15.99996 27.5879867 11.99996 20.6900078"></polygon>
                        <polygon id="Fill-5" points="0 13.7932766 4 20.6900609 8 13.7932766 4 6.89662504"></polygon>
                        <polygon id="Fill-4" points="12 6.89665158 8 13.7933032 4 6.89665158"></polygon>
                        <polygon id="Fill-12" points="14.23244 17.2417219 12.23244 13.7932633 14.23244 10.3448048 18.23244 10.3448048 20.23244 13.7932633 18.23244 17.2417219"></polygon>
                    </g>
                </g>
            </g>
        </g>
    </g>
</svg>