<?xml version="1.0" encoding="UTF-8"?>
<svg width="386px" height="277px" viewBox="0 0 386 277" version="1.1" xmlns="http://www.w3.org/2000/svg" xmlns:xlink="http://www.w3.org/1999/xlink">
    <!-- Generator: Sketch Beta 42 (36780) - http://www.bohemiancoding.com/sketch -->
    <title>Group 8</title>
    <desc>Created with Sketch Beta.</desc>
    <defs>
        <linearGradient x1="50%" y1="0%" x2="50%" y2="97.5027902%" id="linearGradient-1">
            <stop stop-color="#52D057" offset="0%"></stop>
            <stop stop-color="#5686DC" offset="100%"></stop>
        </linearGradient>
        <path d="M26.0514141,135.026963 L78.1545835,135.026963 L104.206198,180.044613 L52.1038372,180.044613 L26.0513542,135.026963 L0,90.0174558 L26.0516147,45.008468 L52.1032293,90.0174558 L78.1546435,45.0089878 L130.258274,45.0089878 L130.258681,45.0089878 L104.206198,0 L156.309428,0 L182.360842,45.0086413 L182.361202,45.0086413 L208.412917,90.0174558 L156.309788,90.0174558 L130.258274,45.0089878 L104.206198,0 L93.7855523,18.0035951 L104.205851,0 L52.1034899,0 L26.0510068,45.0089878 L52.1031792,90.0175424 L46.8929063,99.0194267 L52.1032293,90.0176291 L78.154844,135.026617 L26.0520158,135.026617 Z M118.037525,156.144287 L130.258681,135.026617 L156.309428,180.044267 L104.206659,180.044267 L78.154844,135.026963 L130.258073,135.026963 L118.037525,156.144287 Z" id="path-2"></path>
        <linearGradient x1="50%" y1="0%" x2="50%" y2="100%" id="linearGradient-4">
            <stop stop-color="#33B64D" offset="0%"></stop>
            <stop stop-color="#30A7D8" offset="100%"></stop>
        </linearGradient>
        <linearGradient x1="50%" y1="0%" x2="50%" y2="100%" id="linearGradient-5">
            <stop stop-color="#33B36C" offset="0%"></stop>
            <stop stop-color="#208B5D" offset="100%"></stop>
        </linearGradient>
    </defs>
    <g id="Page-1" stroke="none" stroke-width="1" fill="none" fill-rule="evenodd">
        <g id="Desktop-HD" transform="translate(-802.000000, -126.000000)">
            <g id="Page-1" transform="translate(803.000000, 127.000000)">
                <g id="Group-8">
                    <g id="Group" transform="translate(88.000000, 51.000000)">
                        <polygon id="Stroke-1" stroke="#CECECE" points="97.7536349 168.34536 97.786 168.399199 97.7212697 168.399199 65.3884896 112.503027 65.3561245 112.449187 65.3884896 112.395348 65.4208548 112.449187"></polygon>
                        <polygon id="Stroke-3" stroke="#F2F2F2" points="227.246581 56.4884071 227.214216 56.5422466 194.881436 112.449187 194.816705 112.449187 162.483925 56.5422466 162.45156 56.4884071 97.786 56.4884071 130.151145 0.538395035 194.881436 0.538395035"></polygon>
                        <polyline id="Stroke-5" stroke="#F2F2F2" points="162.354465 168.689932 194.546996 224.349211 130.151145 224.349211"></polyline>
                        <polygon id="Stroke-10" stroke="#F2F2F2" points="97.786 168.02243 65.4208548 223.972442 33.0557095 168.02243 32.9909793 168.02243 0.65819917 112.126258 0.690564315 112.072418 65.4208548 112.072418 97.7536349 167.968591"></polygon>
                        <polygon id="Stroke-12" stroke="#F2F2F2" points="194.816705 0.161518511 162.483925 56.0576911 162.45156 56.1115306 97.7212697 56.1115306 65.3884896 0.215358014 65.4208548 0.161518511"></polygon>
                        <polygon id="Stroke-14" stroke="#F2F2F2" points="259.546996 112.072311 259.417535 112.309204 259.277286 112.072311 194.816705 112.072311 162.483925 56.1653701 162.45156 56.1115306 227.181851 56.1115306 227.214216 56.1653701"></polygon>
                        <polygon id="Stroke-16" stroke="#F2F2F2" points="162.51629 168.02243 162.354465 168.313164 130.151145 223.972442 97.786 168.02243 162.181851 168.02243 162.3221 167.785536 162.354465 167.731697 162.483925 167.968591"></polygon>
                        <polygon id="Stroke-18" stroke="#F2F2F2" points="130.151145 223.972335 65.4208548 223.972335 33.0557095 168.022323 65.3884896 112.12615 65.4208548 112.072311 97.7536349 167.968483 97.786 168.022323"></polygon>
                        <polygon id="Stroke-20" stroke="#F2F2F2" points="162.51629 56.1115306 162.483925 56.1653701 162.45156 56.1115306 97.7212697 56.1115306 65.3884896 112.018471 33.0557095 56.1115306 65.3884896 0.215358014 65.4208548 0.161518511 130.151145 0.161518511 162.483925 56.0576911"></polygon>
                        <polygon id="Stroke-22" stroke="#F2F2F2" points="97.7536349 167.968483 97.7212697 168.022323 32.9909793 168.022323 0.65819917 112.12615 0.625834025 112.072311 32.9909793 56.1115306 97.7212697 56.1115306 65.3884896 112.018471 65.4208548 112.072311"></polygon>
                        <g id="Logo-Copy" transform="translate(26.000000, 22.000000)">
                            <g id="Group-10">
                                <g id="Page-1">
                                    <g id="Path-35">
                                        <mask id="mask-3" fill="white">
                                            <use xlink:href="#path-2"></use>
                                        </mask>
                                        <use id="Mask" fill="url(#linearGradient-1)" xlink:href="#path-2"></use>
                                        <path d="M-88.4793914,56.8466417 C-79.9761223,61.0040327 -27.6006887,148.266057 42.3403309,123.537024 C112.281351,98.8079902 101.40201,-60.7107932 247.055385,12.2676373 C392.70876,85.2460679 115.482175,276.368895 115.482175,276.368895 L-130.855239,183.346977 C-130.855239,183.346977 -96.9826604,52.6892508 -88.4793914,56.8466417 Z" fill="url(#linearGradient-4)" mask="url(#mask-3)"></path>
                                    </g>
                                    <polygon id="Fill-12" fill="url(#linearGradient-5)" points="91.9901759 116.223835 78.9643685 93.7184749 91.9901759 71.2131148 118.041791 71.2131148 131.067598 93.7184749 118.041791 116.223835"></polygon>
                                </g>
                            </g>
                        </g>
                    </g>
                    <g id="Page-1" transform="translate(360.679868, 228.995331) rotate(68.000000) translate(-360.679868, -228.995331) translate(336.679868, 210.995331)" stroke="#F2F2F2">
                        <polygon id="Stroke-1" points="26.9412181 1.13686838e-13 20.1165735 11.6807793 20.0597015 11.6807793 20.089275 11.6313226 26.884346 1.13686838e-13"></polygon>
                        <polygon id="Stroke-3" points="47.3582797 11.6807793 40.5632086 23.3121019 40.5632086 23.3143499 40.5336351 23.3615586 26.884346 23.3615586 20.089275 11.730236 20.089275 11.727988 20.0597015 11.6807793 20.089275 11.6313226 26.884346 1.13686838e-13 40.5336351 1.13686838e-13 40.5632086 0.0494567254"></polygon>
                        <polygon id="Stroke-5" points="40.8832199 23.6313226 40.8832199 23.6335706 40.8536465 23.6807793 27.2612294 23.6807793 20.4365848 35.3615586 13.6119403 23.6807793 20.4092863 12.0494567 20.4092863 12.0472087 20.4365848 12 34.0858739 12"></polygon>
                        <polygon id="Stroke-7" points="20.4170616 12 13.5924171 23.6807793 2.27373675e-13 23.6807793 6.82464455 12"></polygon>
                        <polygon id="Stroke-9" points="40.5336351 0.0494567254 33.7362892 11.6807793 20.0870001 11.6807793 20.0597015 11.6313226 26.8547726 1.13686838e-13 40.5040617 1.13686838e-13"></polygon>
                        <polygon id="Stroke-11" points="27.2985782 23.6807793 20.4739336 35.3615586 6.82464455 35.3615586 2.27373675e-13 23.6807793 6.82464455 12 20.4739336 12"></polygon>
                        <polygon id="Stroke-13" points="26.8648228 2.27373675e-13 20.0401783 11.6807793 6.44776119 11.6807793 13.2724057 2.27373675e-13"></polygon>
                    </g>
                    <g id="Page-1" transform="translate(0.000000, 222.000000)">
                        <polyline id="Stroke-1" stroke="#F2F2F2" points="8.10028057 19.0168409 16.0623659 5.140625 31.9865365 5.140625"></polyline>
                        <polyline id="Stroke-2" stroke="#F2F2F2" points="47.9257289 5.14073182 39.9636436 19.0169477 24.039473 19.0169477"></polyline>
                        <g id="Group-9" transform="translate(0.000000, 4.976392)" stroke="#F2F2F2">
                            <polyline id="Stroke-3" points="24.0394995 41.7926136 16.0774142 27.9163977 24.0394995 14.0404489 39.9636701 14.0404489 47.9257555 27.9163977"></polyline>
                            <polygon id="Stroke-5" points="31.9865365 27.9165313 24.0244512 14.0403153 31.9865365 0.164366477 47.9107071 0.164366477 55.8727924 14.0403153 47.9107071 27.9165313"></polygon>
                            <polygon id="Stroke-7" points="8.11530237 41.7926136 0.153217062 27.9163977 8.11530237 14.0404489 24.039473 14.0404489 32.0015583 27.9163977 24.039473 41.7926136"></polygon>
                        </g>
                        <polyline id="Stroke-10" stroke="#F2F2F2" points="32.0015583 5.14073182 24.039473 19.0169477 8.11530237 19.0169477"></polyline>
                        <g id="Group-31" transform="translate(0.000000, 0.169574)">
                            <polyline id="Stroke-11" stroke="#F2F2F2" points="24.0244512 18.847267 16.0623659 32.723483 0.138195261 32.723483"></polyline>
                            <path d="M15.5071431,0.811684659 C15.8733991,1.44378125 15.5350104,2.32850284 14.7510104,2.78862216 C13.966745,3.24847443 13.0349156,3.1090767 12.6686597,2.47698011 C12.3037308,1.84701989 12.6421194,0.962298295 13.4261194,0.502446023 C14.2103848,0.0423267045 15.1422142,0.181991477 15.5071431,0.811684659 Z" id="Stroke-13" stroke="#F2F2F2"></path>
                            <path d="M21.271454,10.8552642 C21.63771,11.4873608 21.2993213,12.3720824 20.5153213,12.8322017 C19.7310559,13.292054 18.7992265,13.1526562 18.4329706,12.5205597 C18.0680417,11.8905994 18.4064303,11.0058778 19.1904303,10.5460256 C19.9746957,10.0859062 20.9065251,10.225571 21.271454,10.8552642 Z" id="Stroke-15" stroke="#F2F2F2"></path>
                            <path d="M15.5071431,0.811684659 L20.2302521,8.96217898 C20.595181,9.59187216 20.2567924,10.4765937 19.4727924,10.9367131 C18.688527,11.3968324 17.7566976,11.2571676 17.3917687,10.6274744 L12.6686597,2.47698011 C13.0349156,3.1090767 13.966745,3.24847443 14.7510104,2.78862216 C15.5350104,2.32850284 15.8733991,1.44378125 15.5071431,0.811684659" id="Fill-17" fill="#FFFFFF"></path>
                            <path d="M15.5071431,0.811684659 L20.2302521,8.96217898 C20.595181,9.59187216 20.2567924,10.4765937 19.4727924,10.9367131 C18.688527,11.3968324 17.7566976,11.2571676 17.3917687,10.6274744 L12.6686597,2.47698011 C13.0349156,3.1090767 13.966745,3.24847443 14.7510104,2.78862216 C15.5350104,2.32850284 15.8733991,1.44378125 15.5071431,0.811684659 Z" id="Stroke-19" stroke="#F2F2F2"></path>
                            <path d="M38.6760152,34.4283813 C37.9488114,34.4203699 37.3678445,33.6739778 37.3779299,32.7609494 C37.3880152,31.847654 37.9851716,31.1146142 38.7123754,31.1226256 C39.4369251,31.1306369 40.0178919,31.8767619 40.0078066,32.7900574 C39.9977213,33.7033528 39.4005649,34.4363926 38.6760152,34.4283813" id="Fill-21" fill="#FFFFFF"></path>
                            <path d="M38.6760152,34.4283813 C37.9488114,34.4203699 37.3678445,33.6739778 37.3779299,32.7609494 C37.3880152,31.847654 37.9851716,31.1146142 38.7123754,31.1226256 C39.4369251,31.1306369 40.0178919,31.8767619 40.0078066,32.7900574 C39.9977213,33.7033528 39.4005649,34.4363926 38.6760152,34.4283813 Z" id="Stroke-23" stroke="#F2F2F2"></path>
                            <path d="M24.3098654,34.376254 C23.5826616,34.3682426 23.0016948,33.6218506 23.0117801,32.7088222 C23.0218654,31.7955267 23.6190218,31.0624869 24.3462256,31.0704983 C25.0707754,31.0785097 25.6517422,31.8246347 25.6416569,32.7379301 C25.6315716,33.6512256 25.0344152,34.3842653 24.3098654,34.376254 Z" id="Stroke-25" stroke="#F2F2F2"></path>
                            <path d="M38.6760152,34.4283813 L29.2998635,34.3239665 C28.5753137,34.3159551 27.9943469,33.5698301 28.0044322,32.6565347 C28.0145175,31.7432392 28.6116739,31.0101994 29.3362237,31.0182108 L38.7123754,31.1226256 C37.9851716,31.1146142 37.3880152,31.847654 37.3779299,32.7609494 C37.3678445,33.6739778 37.9488114,34.4203699 38.6760152,34.4283813" id="Fill-27" fill="#FFFFFF"></path>
                            <path d="M38.6760152,34.4283813 L29.2998635,34.3239665 C28.5753137,34.3159551 27.9943469,33.5698301 28.0044322,32.6565347 C28.0145175,31.7432392 28.6116739,31.0101994 29.3362237,31.0182108 L38.7123754,31.1226256 C37.9851716,31.1146142 37.3880152,31.847654 37.3779299,32.7609494 C37.3678445,33.6739778 37.9488114,34.4203699 38.6760152,34.4283813 Z" id="Stroke-29" stroke="#F2F2F2"></path>
                        </g>
                    </g>
                    <g id="Page-1" transform="translate(57.000000, 0.000000)" stroke="#EEEEEE">
                        <polygon id="Stroke-1" points="26.1611374 11.2413462 19.6208531 22.4826923 6.54028436 22.4826923 0 11.2413462 6.54028436 0 19.6208531 0"></polygon>
                        <polygon id="Stroke-3" points="45.1611374 22.2413462 38.6491943 33.4329327 38.6208531 33.4826923 25.5402844 33.4826923 19.0283412 22.2911058 19 22.2413462 19.0283412 22.1915865 25.5402844 11 38.6208531 11 38.6491943 11.0497596"></polygon>
                        <polygon id="Stroke-5" points="39.1327962 33.1915865 39.104455 33.2413462 26.0805687 33.2413462 19.5402844 44.4826923 13 33.2413462 19.5119431 22.0497596 19.5402844 22 32.6208531 22"></polygon>
                        <polygon id="Stroke-7" points="19.5641706 22.2413462 13.0238863 33.4826923 0 33.4826923 6.54028436 22.2413462 0 11 13.0238863 11"></polygon>
                        <polygon id="Stroke-9" points="39.1327962 11.2911058 32.6208531 22.4826923 19.5402844 22.4826923 19.5119431 22.4329327 13 11.2413462 19.5402844 0 26.0805687 11.2413462 39.104455 11.2413462"></polygon>
                        <polygon id="Stroke-11" points="26.1611374 33.2413462 19.6208531 44.4826923 6.54028436 44.4826923 0 33.2413462 6.54028436 22 19.6208531 22"></polygon>
                    </g>
                </g>
            </g>
        </g>
    </g>
</svg>