<?xml version="1.0" encoding="UTF-8"?>
<svg width="389px" height="338px" viewBox="0 0 389 338" version="1.1" xmlns="http://www.w3.org/2000/svg" xmlns:xlink="http://www.w3.org/1999/xlink">
    <!-- Generator: Sketch 55.2 (78181) - https://sketchapp.com -->
    <title>icon</title>
    <desc>Created with Sketch.</desc>
    <defs>
        <linearGradient x1="50%" y1="0%" x2="50%" y2="97.5027902%" id="linearGradient-1">
            <stop stop-color="#52D057" offset="0%"></stop>
            <stop stop-color="#5686DC" offset="100%"></stop>
        </linearGradient>
        <linearGradient x1="50%" y1="0%" x2="50%" y2="97.5027902%" id="linearGradient-2">
            <stop stop-color="#52D057" offset="0%"></stop>
            <stop stop-color="#5686DC" offset="100%"></stop>
        </linearGradient>
        <path d="M38.9769234,202.240385 L116.931281,202.240385 L155.908504,269.66682 L77.9553564,269.66682 L38.9768338,202.240385 L0,134.826145 L38.9772235,67.4126832 L77.9544469,134.826145 L116.93137,67.4134617 L194.886418,67.4134617 L194.887027,67.4134617 L155.908504,0 L233.862952,0 L272.839875,67.4129427 L272.840414,67.4129427 L311.817787,134.826145 L233.863491,134.826145 L194.886418,67.4134617 L155.908504,0 L140.317615,26.9653847 L155.907985,0 L77.9548368,0 L38.976314,67.4134617 L77.954372,134.826275 L70.1590021,148.309097 L77.9544469,134.826404 L116.93167,202.239866 L38.9778236,202.239866 L38.9769234,202.240385 Z M176.602297,233.869443 L194.887027,202.239866 L233.862952,269.666302 L155.909194,269.666302 L116.93167,202.239866 L194.886117,202.239866 L176.602297,233.869443 Z" id="path-3"></path>
        <linearGradient x1="50%" y1="0%" x2="50%" y2="100%" id="linearGradient-5">
            <stop stop-color="#33B64D" offset="0%"></stop>
            <stop stop-color="#30A7D8" offset="100%"></stop>
        </linearGradient>
        <linearGradient x1="50%" y1="0%" x2="50%" y2="100%" id="linearGradient-6">
            <stop stop-color="#33B36C" offset="0%"></stop>
            <stop stop-color="#208B5D" offset="100%"></stop>
        </linearGradient>
    </defs>
    <g id="页面1" stroke="none" stroke-width="1" fill="none" fill-rule="evenodd">
        <g id="icon" transform="translate(0.000000, 1.000000)">
            <g id="Group">
                <polygon id="Stroke-1" stroke="#CECECE" points="146.254477 252.143939 146.3029 252.224578 146.206054 252.224578 97.8312402 168.504534 97.782817 168.423893 97.8312402 168.343255 97.8796635 168.423893"></polygon>
                <polygon id="Stroke-3" stroke="#F2F2F2" points="339.995846 84.6070809 339.947423 84.6877205 291.57261 168.423893 291.475762 168.423893 243.100949 84.6877205 243.052526 84.6070809 146.3029 84.6070809 194.726136 0.806396119 291.57261 0.806396119"></polygon>
                <polyline id="Stroke-5" stroke="#F2F2F2" points="242.907257 252.660031 291.072236 336.025263 194.726136 336.025263"></polyline>
                <polygon id="Stroke-10" stroke="#F2F2F2" points="146.3029 251.660262 97.8796635 335.460946 49.4564269 251.660262 49.3595806 251.660262 0.98476722 167.940218 1.03319046 167.859577 97.8796635 167.859577 146.254477 251.579623"></polygon>
                <polygon id="Stroke-12" stroke="#F2F2F2" points="291.475762 0.241918836 243.100949 83.961964 243.052526 84.0426036 146.206054 84.0426036 97.8312402 0.322558448 97.8796635 0.241918836"></polygon>
                <polygon id="Stroke-14" stroke="#F2F2F2" points="388.322236 167.859417 388.128543 168.21423 387.918709 167.859417 291.475762 167.859417 243.100949 84.1232432 243.052526 84.0426036 339.899 84.0426036 339.947423 84.1232432"></polygon>
                <polygon id="Stroke-16" stroke="#F2F2F2" points="243.149372 251.660262 242.907257 252.095717 194.726136 335.460946 146.3029 251.660262 242.649 251.660262 242.858834 251.305447 242.907257 251.224808 243.100949 251.579623"></polygon>
                <polygon id="Stroke-18" stroke="#F2F2F2" points="194.726136 335.460786 97.8796635 335.460786 49.4564269 251.660102 97.8312402 167.940056 97.8796635 167.859417 146.254477 251.579461 146.3029 251.660102"></polygon>
                <polygon id="Stroke-20" stroke="#F2F2F2" points="243.149372 84.0426036 243.100949 84.1232432 243.052526 84.0426036 146.206054 84.0426036 97.8312402 167.778777 49.4564269 84.0426036 97.8312402 0.322558448 97.8796635 0.241918836 194.726136 0.241918836 243.100949 83.961964"></polygon>
                <polygon id="Stroke-22" stroke="#F2F2F2" points="146.254477 251.579461 146.206054 251.660102 49.3595806 251.660102 0.98476722 167.940056 0.936343984 167.859417 49.3595806 84.0426036 146.206054 84.0426036 97.8312402 167.778777 97.8796635 167.859417"></polygon>
                <g id="Logo-Copy" transform="translate(38.900000, 32.951111)">
                    <g id="Group-10">
                        <g id="Page-1">
                            <g id="Path-35">
                                <g id="Mask" fill="url(#linearGradient-2)" fill-rule="nonzero">
                                    <path d="M38.9769234,202.240385 L116.931281,202.240385 L155.908504,269.66682 L77.9553564,269.66682 L38.9768338,202.240385 L0,134.826145 L38.9772235,67.4126832 L77.9544469,134.826145 L116.93137,67.4134617 L194.886418,67.4134617 L194.887027,67.4134617 L155.908504,0 L233.862952,0 L272.839875,67.4129427 L272.840414,67.4129427 L311.817787,134.826145 L233.863491,134.826145 L194.886418,67.4134617 L155.908504,0 L140.317615,26.9653847 L155.907985,0 L77.9548368,0 L38.976314,67.4134617 L77.954372,134.826275 L70.1590021,148.309097 L77.9544469,134.826404 L116.93167,202.239866 L38.9778236,202.239866 L38.9769234,202.240385 Z M176.602297,233.869443 L194.887027,202.239866 L233.862952,269.666302 L155.909194,269.666302 L116.93167,202.239866 L194.886117,202.239866 L176.602297,233.869443 Z" id="path-2"></path>
                                </g>
                                <g id="Clipped">
                                    <mask id="mask-4" fill="white">
                                        <use xlink:href="#path-3"></use>
                                    </mask>
                                    <g id="path-2"></g>
                                    <path d="M-132.378782,85.1436367 C-119.656583,91.3704845 -41.2948766,222.069605 63.3476489,185.031009 C167.990175,147.992412 151.713007,-90.9312769 369.632864,18.3741945 C587.552722,127.679666 172.7791,413.939189 172.7791,413.939189 L-195.779569,274.613028 C-195.779569,274.613028 -145.10098,78.916789 -132.378782,85.1436367 Z" id="路径" fill="url(#linearGradient-5)" fill-rule="nonzero" mask="url(#mask-4)"></path>
                                </g>
                            </g>
                            <polygon id="Fill-12" fill="url(#linearGradient-6)" fill-rule="nonzero" points="137.631455 174.077477 118.142844 140.369449 137.631455 106.661421 176.60868 106.661421 196.097291 140.369449 176.60868 174.077477"></polygon>
                        </g>
                    </g>
                </g>
            </g>
        </g>
    </g>
</svg>