<?xml version="1.0" encoding="UTF-8"?>
<svg width="32px" height="32px" viewBox="0 0 32 32" version="1.1" xmlns="http://www.w3.org/2000/svg" xmlns:xlink="http://www.w3.org/1999/xlink">
    <title>画板</title>
    <g id="画板" stroke="none" stroke-width="1" fill="none" fill-rule="evenodd">
        <g id="egg-logo" transform="translate(0.000000, 2.000053)" fill="#494949" fill-rule="nonzero">
            <g id="Page-1">
                <path d="M7.2,15.1725804 L8,13.7932501 L12,20.6900078 L4,20.6900078 L7.2,15.1725804 L4,20.6900078 L0,13.7932235 L4,6.89657195 L8.00004,6.93008476e-17 L15.9999067,6.93008476e-17 L14.39996,2.75866063 L15.99996,6.93008476e-17 L20.0000933,6.89665159 L12,6.89665159 L4.00004619,6.89665159 L8,13.7932235 L7.2,15.1725804 Z M18.1236406,23.9257267 L16,27.5879336 L12,20.6899017 L20,20.6899017 L18.1236406,23.9257267 L20.0000933,20.6899017 L23.99996,27.5879336 L15.99996,27.5879336 L18.1236406,23.9257267 Z M24,13.7932235 L28,6.89657195 L32,13.7932235 L24,13.7932235 Z M12,6.89659849 L8,13.7932501 L4,6.89659849 L12,6.89659849 Z M15.99996,6.93008476e-17 L23.99996,6.93008476e-17 L27.99996,6.89665159 L20.0000933,6.89665159 L15.99996,6.93008476e-17 Z M28,6.89659849 L24,13.7932501 L20,6.89659849 L28,6.89659849 Z M3.99996,20.6899547 L11.99996,20.6899547 L15.99996,27.5879336 L8.00009333,27.5879336 L3.99996,20.6899547 Z" id="Combined-Shape"></path>
                <polygon id="Fill-12" points="14.23244 17.2416688 12.23244 13.7932102 14.23244 10.3447517 18.23244 10.3447517 20.23244 13.7932102 18.23244 17.2416688"></polygon>
            </g>
        </g>
    </g>
</svg>